<mxfile host="app.diagrams.net" modified="2023-08-26T16:53:51.126Z" agent="Mozilla/5.0 (Macintosh; Intel Mac OS X 10_15_7) AppleWebKit/537.36 (KHTML, like Gecko) Chrome/115.0.0.0 Safari/537.36 Edg/115.0.1901.203" etag="NdsmrnNkq-n2bQWiNpok" version="21.6.5" type="github">
  <diagram id="C5RBs43oDa-KdzZeNtuy" name="Page-1">
    <mxGraphModel dx="2645" dy="1068" grid="1" gridSize="10" guides="1" tooltips="1" connect="1" arrows="1" fold="1" page="1" pageScale="1" pageWidth="827" pageHeight="1169" math="0" shadow="0">
      <root>
        <mxCell id="WIyWlLk6GJQsqaUBKTNV-0" />
        <mxCell id="WIyWlLk6GJQsqaUBKTNV-1" parent="WIyWlLk6GJQsqaUBKTNV-0" />
        <mxCell id="5eVZPDMPn15s1h4FUccy-0" value="" style="endArrow=none;dashed=1;html=1;rounded=0;strokeWidth=2;" edge="1" parent="WIyWlLk6GJQsqaUBKTNV-1">
          <mxGeometry width="50" height="50" relative="1" as="geometry">
            <mxPoint x="-290" y="880" as="sourcePoint" />
            <mxPoint x="720" y="880" as="targetPoint" />
          </mxGeometry>
        </mxCell>
        <mxCell id="5eVZPDMPn15s1h4FUccy-1" value="" style="rounded=0;whiteSpace=wrap;html=1;fillColor=#99CCFF;" vertex="1" parent="WIyWlLk6GJQsqaUBKTNV-1">
          <mxGeometry x="-150" y="350" width="600" height="70" as="geometry" />
        </mxCell>
        <mxCell id="5eVZPDMPn15s1h4FUccy-2" value="麻雀系统" style="rounded=0;whiteSpace=wrap;html=1;" vertex="1" parent="WIyWlLk6GJQsqaUBKTNV-1">
          <mxGeometry x="9.5" y="365" width="90" height="40" as="geometry" />
        </mxCell>
        <mxCell id="5eVZPDMPn15s1h4FUccy-3" value="上报系统" style="rounded=0;whiteSpace=wrap;html=1;" vertex="1" parent="WIyWlLk6GJQsqaUBKTNV-1">
          <mxGeometry x="286.5" y="365" width="90" height="40" as="geometry" />
        </mxCell>
        <mxCell id="5eVZPDMPn15s1h4FUccy-6" value="" style="endArrow=none;dashed=1;html=1;rounded=0;strokeWidth=2;" edge="1" parent="WIyWlLk6GJQsqaUBKTNV-1">
          <mxGeometry width="50" height="50" relative="1" as="geometry">
            <mxPoint x="-290" y="440" as="sourcePoint" />
            <mxPoint x="990" y="440" as="targetPoint" />
          </mxGeometry>
        </mxCell>
        <mxCell id="5eVZPDMPn15s1h4FUccy-7" value="" style="endArrow=none;dashed=1;html=1;rounded=0;strokeWidth=2;" edge="1" parent="WIyWlLk6GJQsqaUBKTNV-1">
          <mxGeometry width="50" height="50" relative="1" as="geometry">
            <mxPoint x="460" y="330" as="sourcePoint" />
            <mxPoint x="460" y="1320" as="targetPoint" />
          </mxGeometry>
        </mxCell>
        <mxCell id="5eVZPDMPn15s1h4FUccy-8" value="" style="rounded=0;whiteSpace=wrap;html=1;fillColor=#99CCFF;" vertex="1" parent="WIyWlLk6GJQsqaUBKTNV-1">
          <mxGeometry x="470" y="350" width="240" height="70" as="geometry" />
        </mxCell>
        <mxCell id="5eVZPDMPn15s1h4FUccy-9" value="管理后台" style="rounded=0;whiteSpace=wrap;html=1;" vertex="1" parent="WIyWlLk6GJQsqaUBKTNV-1">
          <mxGeometry x="550" y="365" width="90" height="40" as="geometry" />
        </mxCell>
        <mxCell id="5eVZPDMPn15s1h4FUccy-10" value="" style="endArrow=none;dashed=1;html=1;rounded=0;strokeWidth=2;" edge="1" parent="WIyWlLk6GJQsqaUBKTNV-1">
          <mxGeometry width="50" height="50" relative="1" as="geometry">
            <mxPoint x="-160" y="330" as="sourcePoint" />
            <mxPoint x="-160" y="1320" as="targetPoint" />
          </mxGeometry>
        </mxCell>
        <mxCell id="5eVZPDMPn15s1h4FUccy-11" value="网关服务" style="rounded=0;whiteSpace=wrap;html=1;fillColor=#CCCCFF;" vertex="1" parent="WIyWlLk6GJQsqaUBKTNV-1">
          <mxGeometry x="-270" y="475" width="90" height="40" as="geometry" />
        </mxCell>
        <mxCell id="5eVZPDMPn15s1h4FUccy-12" value="SLB/Ingress" style="rounded=0;whiteSpace=wrap;html=1;fillColor=#F7CDA0;" vertex="1" parent="WIyWlLk6GJQsqaUBKTNV-1">
          <mxGeometry x="-150" y="470" width="860" height="50" as="geometry" />
        </mxCell>
        <mxCell id="5eVZPDMPn15s1h4FUccy-13" value="" style="endArrow=none;dashed=1;html=1;rounded=0;strokeWidth=2;" edge="1" parent="WIyWlLk6GJQsqaUBKTNV-1">
          <mxGeometry width="50" height="50" relative="1" as="geometry">
            <mxPoint x="-290" y="550" as="sourcePoint" />
            <mxPoint x="720" y="550" as="targetPoint" />
          </mxGeometry>
        </mxCell>
        <mxCell id="5eVZPDMPn15s1h4FUccy-15" value="电销服务" style="rounded=0;whiteSpace=wrap;html=1;fillColor=#CCCCFF;" vertex="1" parent="WIyWlLk6GJQsqaUBKTNV-1">
          <mxGeometry x="-270" y="580" width="90" height="280" as="geometry" />
        </mxCell>
        <mxCell id="5eVZPDMPn15s1h4FUccy-16" value="" style="rounded=0;whiteSpace=wrap;html=1;fillColor=#FBCCCC;" vertex="1" parent="WIyWlLk6GJQsqaUBKTNV-1">
          <mxGeometry x="730" y="350" width="230" height="70" as="geometry" />
        </mxCell>
        <mxCell id="5eVZPDMPn15s1h4FUccy-17" value="监控告警" style="rounded=0;whiteSpace=wrap;html=1;" vertex="1" parent="WIyWlLk6GJQsqaUBKTNV-1">
          <mxGeometry x="800" y="365" width="90" height="40" as="geometry" />
        </mxCell>
        <mxCell id="5eVZPDMPn15s1h4FUccy-18" value="" style="endArrow=none;dashed=1;html=1;rounded=0;strokeWidth=2;" edge="1" parent="WIyWlLk6GJQsqaUBKTNV-1">
          <mxGeometry width="50" height="50" relative="1" as="geometry">
            <mxPoint x="720" y="330" as="sourcePoint" />
            <mxPoint x="720" y="1320" as="targetPoint" />
          </mxGeometry>
        </mxCell>
        <mxCell id="5eVZPDMPn15s1h4FUccy-19" value="" style="rounded=0;whiteSpace=wrap;html=1;fillColor=#CCFFE6;" vertex="1" parent="WIyWlLk6GJQsqaUBKTNV-1">
          <mxGeometry x="-150" y="580" width="600" height="280" as="geometry" />
        </mxCell>
        <mxCell id="5eVZPDMPn15s1h4FUccy-20" value="" style="rounded=0;whiteSpace=wrap;html=1;fillColor=#CCFFE6;" vertex="1" parent="WIyWlLk6GJQsqaUBKTNV-1">
          <mxGeometry x="470" y="580" width="240" height="280" as="geometry" />
        </mxCell>
        <mxCell id="5eVZPDMPn15s1h4FUccy-21" value="" style="rounded=0;whiteSpace=wrap;html=1;fillColor=#FBCCCC;" vertex="1" parent="WIyWlLk6GJQsqaUBKTNV-1">
          <mxGeometry x="730" y="450" width="240" height="870" as="geometry" />
        </mxCell>
        <mxCell id="5eVZPDMPn15s1h4FUccy-22" value="黑名单管理" style="rounded=0;whiteSpace=wrap;html=1;" vertex="1" parent="WIyWlLk6GJQsqaUBKTNV-1">
          <mxGeometry x="491" y="650" width="90" height="40" as="geometry" />
        </mxCell>
        <mxCell id="5eVZPDMPn15s1h4FUccy-23" value="系统管理" style="rounded=0;whiteSpace=wrap;html=1;" vertex="1" parent="WIyWlLk6GJQsqaUBKTNV-1">
          <mxGeometry x="606" y="650" width="90" height="40" as="geometry" />
        </mxCell>
        <mxCell id="5eVZPDMPn15s1h4FUccy-24" value="组织管理" style="rounded=0;whiteSpace=wrap;html=1;" vertex="1" parent="WIyWlLk6GJQsqaUBKTNV-1">
          <mxGeometry x="491" y="750" width="90" height="40" as="geometry" />
        </mxCell>
        <mxCell id="5eVZPDMPn15s1h4FUccy-25" value="统计报表" style="rounded=0;whiteSpace=wrap;html=1;" vertex="1" parent="WIyWlLk6GJQsqaUBKTNV-1">
          <mxGeometry x="606" y="750" width="90" height="40" as="geometry" />
        </mxCell>
        <mxCell id="5eVZPDMPn15s1h4FUccy-26" value="名单管理" style="rounded=0;whiteSpace=wrap;html=1;" vertex="1" parent="WIyWlLk6GJQsqaUBKTNV-1">
          <mxGeometry x="-22.5" y="650" width="90" height="40" as="geometry" />
        </mxCell>
        <mxCell id="5eVZPDMPn15s1h4FUccy-27" value="案件管理" style="rounded=0;whiteSpace=wrap;html=1;" vertex="1" parent="WIyWlLk6GJQsqaUBKTNV-1">
          <mxGeometry x="109.5" y="650" width="90" height="40" as="geometry" />
        </mxCell>
        <mxCell id="5eVZPDMPn15s1h4FUccy-28" value="智能分案" style="rounded=0;whiteSpace=wrap;html=1;" vertex="1" parent="WIyWlLk6GJQsqaUBKTNV-1">
          <mxGeometry x="247.5" y="650" width="90" height="40" as="geometry" />
        </mxCell>
        <mxCell id="5eVZPDMPn15s1h4FUccy-29" value="预测外呼" style="rounded=0;whiteSpace=wrap;html=1;" vertex="1" parent="WIyWlLk6GJQsqaUBKTNV-1">
          <mxGeometry x="-22.5" y="750" width="90" height="40" as="geometry" />
        </mxCell>
        <mxCell id="5eVZPDMPn15s1h4FUccy-30" value="坐席巡航" style="rounded=0;whiteSpace=wrap;html=1;" vertex="1" parent="WIyWlLk6GJQsqaUBKTNV-1">
          <mxGeometry x="109.5" y="750" width="90" height="40" as="geometry" />
        </mxCell>
        <mxCell id="5eVZPDMPn15s1h4FUccy-31" value="sls日志" style="rounded=0;whiteSpace=wrap;html=1;" vertex="1" parent="WIyWlLk6GJQsqaUBKTNV-1">
          <mxGeometry x="750" y="707" width="90" height="40" as="geometry" />
        </mxCell>
        <mxCell id="5eVZPDMPn15s1h4FUccy-32" value="非200响应告警" style="rounded=0;whiteSpace=wrap;html=1;" vertex="1" parent="WIyWlLk6GJQsqaUBKTNV-1">
          <mxGeometry x="860" y="640" width="90" height="40" as="geometry" />
        </mxCell>
        <mxCell id="5eVZPDMPn15s1h4FUccy-33" value="请求下游失败告警" style="rounded=0;whiteSpace=wrap;html=1;" vertex="1" parent="WIyWlLk6GJQsqaUBKTNV-1">
          <mxGeometry x="860" y="787" width="90" height="40" as="geometry" />
        </mxCell>
        <mxCell id="5eVZPDMPn15s1h4FUccy-34" value="prometheus" style="rounded=0;whiteSpace=wrap;html=1;" vertex="1" parent="WIyWlLk6GJQsqaUBKTNV-1">
          <mxGeometry x="750" y="787" width="90" height="40" as="geometry" />
        </mxCell>
        <mxCell id="5eVZPDMPn15s1h4FUccy-35" value="grafana" style="rounded=0;whiteSpace=wrap;html=1;" vertex="1" parent="WIyWlLk6GJQsqaUBKTNV-1">
          <mxGeometry x="750" y="867" width="90" height="40" as="geometry" />
        </mxCell>
        <mxCell id="5eVZPDMPn15s1h4FUccy-36" value="cat" style="rounded=0;whiteSpace=wrap;html=1;" vertex="1" parent="WIyWlLk6GJQsqaUBKTNV-1">
          <mxGeometry x="750" y="937" width="90" height="40" as="geometry" />
        </mxCell>
        <mxCell id="5eVZPDMPn15s1h4FUccy-39" value="慢sql" style="rounded=0;whiteSpace=wrap;html=1;" vertex="1" parent="WIyWlLk6GJQsqaUBKTNV-1">
          <mxGeometry x="860" y="860" width="90" height="40" as="geometry" />
        </mxCell>
        <mxCell id="5eVZPDMPn15s1h4FUccy-40" value="队列堆积告警" style="rounded=0;whiteSpace=wrap;html=1;" vertex="1" parent="WIyWlLk6GJQsqaUBKTNV-1">
          <mxGeometry x="860" y="934" width="90" height="40" as="geometry" />
        </mxCell>
        <mxCell id="5eVZPDMPn15s1h4FUccy-41" value="中间件&amp;amp;存储" style="rounded=0;whiteSpace=wrap;html=1;fillColor=#CCCCFF;" vertex="1" parent="WIyWlLk6GJQsqaUBKTNV-1">
          <mxGeometry x="-270" y="889" width="90" height="141" as="geometry" />
        </mxCell>
        <mxCell id="5eVZPDMPn15s1h4FUccy-42" value="" style="endArrow=none;dashed=1;html=1;rounded=0;strokeWidth=2;" edge="1" parent="WIyWlLk6GJQsqaUBKTNV-1">
          <mxGeometry width="50" height="50" relative="1" as="geometry">
            <mxPoint x="-290" y="1040" as="sourcePoint" />
            <mxPoint x="720" y="1040" as="targetPoint" />
          </mxGeometry>
        </mxCell>
        <mxCell id="5eVZPDMPn15s1h4FUccy-43" value="" style="rounded=0;whiteSpace=wrap;html=1;fillColor=#A4CBFB;" vertex="1" parent="WIyWlLk6GJQsqaUBKTNV-1">
          <mxGeometry x="-150" y="889" width="860" height="141" as="geometry" />
        </mxCell>
        <mxCell id="5eVZPDMPn15s1h4FUccy-45" value="rabbitmq&lt;br&gt;/pulsar" style="rounded=0;whiteSpace=wrap;html=1;" vertex="1" parent="WIyWlLk6GJQsqaUBKTNV-1">
          <mxGeometry x="130" y="913" width="80" height="100" as="geometry" />
        </mxCell>
        <mxCell id="5eVZPDMPn15s1h4FUccy-46" value="依赖服务" style="rounded=0;whiteSpace=wrap;html=1;fillColor=#CCCCFF;" vertex="1" parent="WIyWlLk6GJQsqaUBKTNV-1">
          <mxGeometry x="-270" y="1050" width="90" height="131" as="geometry" />
        </mxCell>
        <mxCell id="5eVZPDMPn15s1h4FUccy-47" value="削峰" style="rounded=0;whiteSpace=wrap;html=1;" vertex="1" parent="WIyWlLk6GJQsqaUBKTNV-1">
          <mxGeometry x="270" y="913" width="110" height="37" as="geometry" />
        </mxCell>
        <mxCell id="5eVZPDMPn15s1h4FUccy-48" value="解耦" style="rounded=0;whiteSpace=wrap;html=1;" vertex="1" parent="WIyWlLk6GJQsqaUBKTNV-1">
          <mxGeometry x="270" y="974" width="110" height="37" as="geometry" />
        </mxCell>
        <mxCell id="5eVZPDMPn15s1h4FUccy-49" value="" style="shape=flexArrow;endArrow=classic;html=1;rounded=0;" edge="1" parent="WIyWlLk6GJQsqaUBKTNV-1">
          <mxGeometry width="50" height="50" relative="1" as="geometry">
            <mxPoint x="220" y="962" as="sourcePoint" />
            <mxPoint x="260" y="962" as="targetPoint" />
          </mxGeometry>
        </mxCell>
        <mxCell id="5eVZPDMPn15s1h4FUccy-50" value="" style="rounded=0;whiteSpace=wrap;html=1;fillColor=#A5DEDF;" vertex="1" parent="WIyWlLk6GJQsqaUBKTNV-1">
          <mxGeometry x="-150" y="1050" width="860" height="141" as="geometry" />
        </mxCell>
        <mxCell id="5eVZPDMPn15s1h4FUccy-52" value="mysql" style="shape=cylinder3;whiteSpace=wrap;html=1;boundedLbl=1;backgroundOutline=1;size=15;" vertex="1" parent="WIyWlLk6GJQsqaUBKTNV-1">
          <mxGeometry x="521" y="923" width="60" height="80" as="geometry" />
        </mxCell>
        <mxCell id="5eVZPDMPn15s1h4FUccy-54" value="" style="endArrow=none;dashed=1;html=1;rounded=0;strokeWidth=2;" edge="1" parent="WIyWlLk6GJQsqaUBKTNV-1">
          <mxGeometry width="50" height="50" relative="1" as="geometry">
            <mxPoint x="-290" y="1205" as="sourcePoint" />
            <mxPoint x="720" y="1205" as="targetPoint" />
          </mxGeometry>
        </mxCell>
        <mxCell id="5eVZPDMPn15s1h4FUccy-55" value="CICD" style="rounded=0;whiteSpace=wrap;html=1;fillColor=#CCCCFF;" vertex="1" parent="WIyWlLk6GJQsqaUBKTNV-1">
          <mxGeometry x="-270" y="1210" width="90" height="110" as="geometry" />
        </mxCell>
        <mxCell id="5eVZPDMPn15s1h4FUccy-56" value="" style="rounded=0;whiteSpace=wrap;html=1;fillColor=#E6FFCC;" vertex="1" parent="WIyWlLk6GJQsqaUBKTNV-1">
          <mxGeometry x="-150" y="1210" width="860" height="110" as="geometry" />
        </mxCell>
        <mxCell id="5eVZPDMPn15s1h4FUccy-57" value="jenkins" style="rounded=0;whiteSpace=wrap;html=1;" vertex="1" parent="WIyWlLk6GJQsqaUBKTNV-1">
          <mxGeometry x="86.5" y="1246.5" width="110" height="37" as="geometry" />
        </mxCell>
        <mxCell id="5eVZPDMPn15s1h4FUccy-58" value="k8s" style="rounded=0;whiteSpace=wrap;html=1;" vertex="1" parent="WIyWlLk6GJQsqaUBKTNV-1">
          <mxGeometry x="227.5" y="1246.5" width="110" height="37" as="geometry" />
        </mxCell>
        <mxCell id="5eVZPDMPn15s1h4FUccy-59" value="xxl job" style="rounded=0;whiteSpace=wrap;html=1;" vertex="1" parent="WIyWlLk6GJQsqaUBKTNV-1">
          <mxGeometry x="367.5" y="1246.5" width="110" height="37" as="geometry" />
        </mxCell>
        <mxCell id="5eVZPDMPn15s1h4FUccy-61" value="坐席管理" style="rounded=0;whiteSpace=wrap;html=1;" vertex="1" parent="WIyWlLk6GJQsqaUBKTNV-1">
          <mxGeometry x="247.5" y="750" width="90" height="40" as="geometry" />
        </mxCell>
        <mxCell id="5eVZPDMPn15s1h4FUccy-62" value="接口耗时监控" style="rounded=0;whiteSpace=wrap;html=1;" vertex="1" parent="WIyWlLk6GJQsqaUBKTNV-1">
          <mxGeometry x="860" y="1010" width="90" height="40" as="geometry" />
        </mxCell>
        <mxCell id="5eVZPDMPn15s1h4FUccy-63" value="系统异常告警" style="rounded=0;whiteSpace=wrap;html=1;" vertex="1" parent="WIyWlLk6GJQsqaUBKTNV-1">
          <mxGeometry x="860" y="713" width="90" height="40" as="geometry" />
        </mxCell>
        <mxCell id="5eVZPDMPn15s1h4FUccy-64" value="" style="shape=flexArrow;endArrow=classic;html=1;rounded=0;exitX=0.333;exitY=1.021;exitDx=0;exitDy=0;exitPerimeter=0;" edge="1" parent="WIyWlLk6GJQsqaUBKTNV-1">
          <mxGeometry width="50" height="50" relative="1" as="geometry">
            <mxPoint x="172.00000000000017" y="421.47" as="sourcePoint" />
            <mxPoint x="172.2" y="470" as="targetPoint" />
          </mxGeometry>
        </mxCell>
        <mxCell id="5eVZPDMPn15s1h4FUccy-65" value="" style="shape=flexArrow;endArrow=classic;html=1;rounded=0;exitX=0.333;exitY=1.021;exitDx=0;exitDy=0;exitPerimeter=0;" edge="1" parent="WIyWlLk6GJQsqaUBKTNV-1">
          <mxGeometry width="50" height="50" relative="1" as="geometry">
            <mxPoint x="594.5" y="420" as="sourcePoint" />
            <mxPoint x="594.5" y="469" as="targetPoint" />
          </mxGeometry>
        </mxCell>
        <mxCell id="5eVZPDMPn15s1h4FUccy-67" value="redis" style="shape=datastore;whiteSpace=wrap;html=1;" vertex="1" parent="WIyWlLk6GJQsqaUBKTNV-1">
          <mxGeometry x="-60" y="933" width="60" height="60" as="geometry" />
        </mxCell>
        <mxCell id="5eVZPDMPn15s1h4FUccy-68" value="变量中心" style="rounded=0;whiteSpace=wrap;html=1;" vertex="1" parent="WIyWlLk6GJQsqaUBKTNV-1">
          <mxGeometry x="-60" y="1100.5" width="90" height="40" as="geometry" />
        </mxCell>
        <mxCell id="5eVZPDMPn15s1h4FUccy-69" value="上报系统" style="rounded=0;whiteSpace=wrap;html=1;" vertex="1" parent="WIyWlLk6GJQsqaUBKTNV-1">
          <mxGeometry x="67.5" y="1100.5" width="90" height="40" as="geometry" />
        </mxCell>
        <mxCell id="5eVZPDMPn15s1h4FUccy-70" value="信贷系统" style="rounded=0;whiteSpace=wrap;html=1;" vertex="1" parent="WIyWlLk6GJQsqaUBKTNV-1">
          <mxGeometry x="210" y="1100.5" width="90" height="40" as="geometry" />
        </mxCell>
        <mxCell id="5eVZPDMPn15s1h4FUccy-71" value="CIS服务" style="rounded=0;whiteSpace=wrap;html=1;" vertex="1" parent="WIyWlLk6GJQsqaUBKTNV-1">
          <mxGeometry x="369" y="1100.5" width="90" height="40" as="geometry" />
        </mxCell>
        <mxCell id="5eVZPDMPn15s1h4FUccy-72" value="呼叫中心" style="rounded=0;whiteSpace=wrap;html=1;" vertex="1" parent="WIyWlLk6GJQsqaUBKTNV-1">
          <mxGeometry x="530" y="1100.5" width="90" height="40" as="geometry" />
        </mxCell>
      </root>
    </mxGraphModel>
  </diagram>
</mxfile>
